<svg
                xmlns:dc="http://purl.org/dc/elements/1.1/"
                xmlns:cc="http://creativecommons.org/ns#"
                xmlns:rdf="http://www.w3.org/1999/02/22-rdf-syntax-ns#"
                xmlns="http://www.w3.org/2000/svg"
                xmlns:sodipodi="http://sodipodi.sourceforge.net/DTD/sodipodi-0.dtd"
                xmlns:inkscape="http://www.inkscape.org/namespaces/inkscape"
                sodipodi:docname="working.svg"
                inkscape:version="1.0 (4035a4f, 2020-05-01)"
                id="svg2659"
                version="1.1"
                viewBox="0 0 101.3327 62.224556"
                height="62.224556mm"
                width="101.3327mm">
            <defs
                    id="defs2653"/>
            <sodipodi:namedview
                    fit-margin-bottom="0"
                    fit-margin-right="0"
                    fit-margin-left="0"
                    fit-margin-top="0"
                    inkscape:window-maximized="1"
                    inkscape:window-y="23"
                    inkscape:window-x="0"
                    inkscape:window-height="1395"
                    inkscape:window-width="2560"
                    showgrid="false"
                    inkscape:document-rotation="0"
                    inkscape:current-layer="layer1"
                    inkscape:document-units="mm"
                    inkscape:cy="121.58962"
                    inkscape:cx="156.37764"
                    inkscape:zoom="1.0948583"
                    inkscape:pageshadow="2"
                    inkscape:pageopacity="0.0"
                    borderopacity="1.0"
                    bordercolor="#666666"
                    pagecolor="#ffffff"
                    id="base"/>
            <metadata
                    id="metadata2656">
                <rdf:RDF>
                    <cc:Work
                            rdf:about="">
                        <dc:format>image/svg+xml</dc:format>
                        <dc:type
                                rdf:resource="http://purl.org/dc/dcmitype/StillImage"/>
                        <dc:title></dc:title>
                    </cc:Work>
                </rdf:RDF>
            </metadata>
            <g
                    transform="translate(-55.166987,-117.05439)"
                    id="layer1"
                    inkscape:groupmode="layer"
                    inkscape:label="Layer 1">
                <path
                        style="stroke-width:0.264583"
                        d="M 156.23646,166.0023 H 55.43021 a 0.2645835,0.2645835 0 0 1 0,-0.52916 h 100.80625 a 0.2645835,0.2645835 0 0 1 0,0.52916 z"
                        fill="#3f3d56"
                        id="path1993"/>
                <circle
                        style="stroke-width:0.264583"
                        cx="107.83334"
                        cy="124.19814"
                        r="7.1437502"
                        fill="#2f2e41"
                        id="circle1995"/>
                <polygon
                        style="fill:#a0616a;fill-opacity:1"
                        transform="matrix(0.26458333,0,0,0.26458333,55.165627,69.826262)"
                        points="220.612,376.067 173.405,378.826 172.69,366.588 219.556,358.003 "
                        fill="#ffb8b8"
                        id="polygon1997"/>
                <path
                        style="stroke-width:0.264583"
                        d="m 101.64642,164.45212 0.36505,6.24511 -3.932104,0.22985 -0.594902,-10.17721 v 0 a 3.938815,3.938815 0 0 1 4.161956,3.70225 z"
                        fill="#2f2e41"
                        id="path1999"/>
                <polygon
                        style="fill:#a0616a;fill-opacity:1"
                        transform="matrix(0.26458333,0,0,0.26458333,55.165627,69.826262)"
                        points="157.257,348.688 193.789,378.714 186.004,388.185 145.768,362.666 "
                        fill="#ffb8b8"
                        id="polygon2001"/>
                <path
                        style="stroke-width:0.264583"
                        d="m 102.192,173.73503 3.97224,-4.8328 3.04288,2.50104 -6.47328,7.87568 v 0 a 3.938815,3.938815 0 0 1 -0.54184,-5.54392 z"
                        fill="#2f2e41"
                        id="path2003"/>
                <path
                        style="stroke-width:0.264583"
                        d="m 100.51167,158.37436 -1.407514,6.63545 a 1.0583333,1.0583333 0 0 0 1.018234,1.2778 l 13.83714,0.22318 a 1.0583333,1.0583333 0 0 0 1.05929,-1.24212 l -1.21034,-6.85862 a 1.0583333,1.0583333 0 0 0 -1.04223,-0.87441 h -11.21928 a 1.0583333,1.0583333 0 0 0 -1.0353,0.83872 z"
                        fill="#2f2e41"
                        id="path2005"/>
                <path
                        style="stroke-width:0.264583"
                        d="m 102.80625,160.71064 c 0,0 -13.493747,-8.46667 -16.13958,-3.96875 -1.322917,2.24895 -0.661458,4.43177 0.330729,6.05234 a 9.1626611,9.1626611 0 0 0 3.810662,3.41078 l 10.939859,5.35354 3.96875,-4.23333 -2.64583,-2.38125 z"
                        fill="#2f2e41"
                        id="path2007"/>
                <path
                        style="stroke-width:0.264583"
                        d="m 109.68542,159.38772 c 0,0 17.4625,-5.02708 14.02292,4.49792 -3.43959,9.525 -16.40417,5.82083 -16.40417,5.82083 l -1.32292,-3.96875 4.49792,-3.175 z"
                        fill="#2f2e41"
                        id="path2009"/>
                <circle
                        style="fill:#a0616a;fill-opacity:1;stroke-width:0.264583"
                        cx="107.92292"
                        cy="125.82938"
                        r="6.4984388"
                        fill="#ffb8b8"
                        id="circle2011"/>
                <path
                        style="stroke-width:0.264583"
                        d="m 108.26341,160.43779 a 34.923375,34.923375 0 0 1 -8.00552,-1.05472 l -0.0774,-0.0212 -3.626261,-16.68064 a 6.1448685,6.1448685 0 0 1 3.950981,-7.12876 21.288293,21.288293 0 0 1 13.57301,-0.27104 h 7e-5 a 6.2096544,6.2096544 0 0 1 4.13676,7.34606 l -4.05034,16.72043 -0.057,0.0271 c -1.68323,0.79736 -3.78808,1.06272 -5.84428,1.06272 z"
                        fill="#cccccc"
                        id="path2013"/>
                <path
                        style="stroke-width:0.264583"
                        d="m 103.39239,161.73359 a 2.6605786,2.6605786 0 0 1 3.82994,-1.40553 l 7.14018,-6.19773 0.64601,4.87057 -6.87947,5.13877 a 2.6750089,2.6750089 0 0 1 -4.73666,-2.40608 z"
                        fill="#ffb8b8"
                        id="path2015"/>
                <path
                        style="stroke-width:0.264583"
                        d="m 110.20218,163.08543 a 1.1994965,1.1994965 0 0 1 -0.343,-0.0504 1.1780917,1.1780917 0 0 1 -0.7838,-0.74518 l -0.86183,-2.44171 a 1.1832167,1.1832167 0 0 1 0.34455,-1.29708 l 9.72841,-5.84047 -3.8349,-17.10825 0.0975,-0.0235 c 0.0397,-0.01 3.96881,-0.90409 5.57892,3.38945 1.12752,3.00706 5.3,9.54542 5.00564,13.96375 a 3.9382197,3.9382197 0 0 1 -3.2602,3.63208 l -10.95062,6.27404 a 1.1789833,1.1789833 0 0 1 -0.72071,0.24727 z"
                        fill="#cccccc"
                        id="path2017"/>
                <path
                        style="stroke-width:0.264583"
                        d="m 111.2933,161.1532 a 2.6605839,2.6605839 0 0 0 -3.82994,-1.40552 l -7.14018,-6.19774 -0.646011,4.87058 6.879471,5.13876 a 2.6750089,2.6750089 0 0 0 4.73666,-2.40608 z"
                        fill="#ffb8b8"
                        id="path2019"/>
                <path
                        style="stroke-width:0.264583"
                        d="m 105.1999,163.08543 a 1.1789833,1.1789833 0 0 1 -0.72069,-0.24727 l -11.744372,-5.74487 a 3.9382197,3.9382197 0 0 1 -3.260195,-3.63208 c -0.294363,-4.41834 4.671872,-11.48586 5.799386,-14.49292 1.609989,-4.29353 5.539201,-3.39953 5.578921,-3.38945 l 0.0975,0.0235 -4.628659,17.63742 10.522159,5.3113 a 1.1832167,1.1832167 0 0 1 0.34455,1.29708 l -0.86183,2.44171 a 1.1780917,1.1780917 0 0 1 -0.7838,0.74518 1.1998325,1.1998325 0 0 1 -0.343,0.0504 z"
                        fill="#cccccc"
                        id="path2021"/>
                <path
                        style="stroke-width:0.264583"
                        d="M 119.21042,165.7377 H 95.662509 a 1.8542476,1.8542476 0 0 1 -1.852084,-1.85208 v -12.96459 a 1.8542476,1.8542476 0 0 1 1.852084,-1.85208 h 23.547911 a 1.854245,1.854245 0 0 1 1.85209,1.85208 v 12.96459 a 1.8542476,1.8542476 0 0 1 -1.85209,1.85208 z"
                        fill="#6c63ff"
                        id="laptop_color2"/>
                <circle
                        style="stroke-width:0.264583"
                        cx="107.43646"
                        cy="157.40335"
                        r="1.5875"
                        fill="#ffffff"
                        id="circle2025"/>
                <path
                        style="stroke-width:0.264583"
                        d="m 101.35939,125.56489 c -0.38514,-0.97692 0.24677,-2.14112 1.18419,-2.61435 0.93743,-0.47322 2.06864,-0.38323 3.07135,-0.0713 0.84265,0.26211 1.63241,0.66831 2.45451,0.98913 a 5.4931522,5.4931522 0 0 0 2.58044,0.45956 c 0.87691,-0.099 1.74967,-0.59076 2.10849,-1.397 0.37193,-0.83571 0.11896,-1.85556 -0.45381,-2.56879 a 4.9739603,4.9739603 0 0 0 -2.27851,-1.46441 c -1.93344,-0.68115 -4.16674,-0.70107 -5.96168,0.28906 -1.79495,0.99012 -3.01479,3.09832 -2.64377,5.11439"
                        fill="#2f2e41"
                        id="path2027"/>
                <path
                        style="stroke-width:0.264583"
                        d="m 63.807572,162.91156 a 32.2902,32.2902 0 0 1 2.672432,-10.19101 q 0.603147,-1.34739 1.327714,-2.63545 a 0.19679708,0.19679708 0 0 0 -0.339604,-0.19851 32.736433,32.736433 0 0 0 -3.64273,10.04949 q -0.27349,1.47731 -0.411105,2.97548 c -0.02331,0.25192 0.370134,0.25033 0.393298,0 z"
                        fill="#e6e6e6"
                        id="path2029"/>
                <circle
                        style="stroke-width:0.264583"
                        cx="68.760292"
                        cy="148.22496"
                        r="2.4908934"
                        fill="#6c63ff"
                        id="circle2031_color2"/>
                <path
                        style="stroke-width:0.264583"
                        d="m 64.062374,162.97772 a 20.948147,20.948147 0 0 1 1.733727,-6.61139 q 0.39129,-0.87411 0.861349,-1.70973 a 0.12767204,0.12767204 0 0 0 -0.220316,-0.12878 21.237713,21.237713 0 0 0 -2.363209,6.51956 q -0.177427,0.95841 -0.2667,1.93034 c -0.01513,0.16343 0.240123,0.1624 0.255151,0 z"
                        fill="#e6e6e6"
                        id="path2033"/>
                <circle
                        style="stroke-width:0.264583"
                        cx="67.275436"
                        cy="153.44984"
                        r="1.6159586"
                        fill="#6c63ff"
                        id="circle2035_color2"/>
                <path
                        style="stroke-width:0.264583"
                        d="m 63.740336,162.82518 a 20.948121,20.948121 0 0 1 -2.699388,-6.2793 Q 60.81184,155.61599 60.668513,154.668 a 0.1276694,0.1276694 0 0 0 -0.252921,0.034 21.237599,21.237599 0 0 0 2.146581,6.59407 q 0.449577,0.86481 0.976979,1.68607 c 0.0886,0.13817 0.289219,-0.0196 0.201184,-0.15693 z"
                        fill="#e6e6e6"
                        id="path2037"/>
                <circle
                        style="stroke-width:0.264583"
                        cx="60.413559"
                        cy="153.33641"
                        r="1.6159586"
                        fill="#6c63ff"
                        id="circle2039_color2"/>
                <path
                        d="m 58.779457,164.25491 v -3.175 a 1.1919691,1.1919691 0 0 1 1.190625,-1.19063 h 7.408333 a 1.1919691,1.1919691 0 0 1 1.190625,1.19063 v 3.175 a 1.1919691,1.1919691 0 0 1 -1.190625,1.19062 h -7.408333 a 1.1919691,1.1919691 0 0 1 -1.190625,-1.19062 z"
                        fill="#f2f2f2"
                        style="isolation:isolate;stroke-width:0.264583"
                        id="path2041"/>
                <path
                        style="stroke-width:0.264583"
                        d="m 138.35297,167.96038 c 0,1.74018 -1.4107,2.53116 -3.15089,2.53116 -1.74018,0 -3.15088,-0.79098 -3.15088,-2.53116 0,-1.74018 0.7002,-3.77061 3.15088,-3.07041 2.45069,-1.0503 3.15089,1.33023 3.15089,3.07041 z"
                        fill="#ff6584"
                        id="path2043"/>
                <path
                        style="stroke-width:0.264583"
                        d="m 135.04861,165.70514 a 0.50367671,0.50367671 0 0 1 -0.50036,-0.43899 c -0.10432,-0.86816 -0.67935,-2.56857 -0.92171,-3.25923 l -7e-5,-2.7e-4 a 0.45058542,0.45058542 0 0 1 0.0583,-0.41444 0.47268342,0.47268342 0 0 1 0.70467,-0.0509 0.45105373,0.45105373 0 0 1 0.1239,0.33771 c -0.0475,0.88651 0.59873,2.31898 0.98818,3.09412 a 0.50481177,0.50481177 0 0 1 -0.39946,0.72916 0.4665636,0.4665636 0 0 1 -0.0534,0.003 z"
                        fill="#3f3d56"
                        id="path2045"/>
                <path
                        style="stroke-width:0.264583"
                        d="m 137.38013,163.7495 c 1.09377,-0.89519 0.23563,-2.72722 -1.13331,-2.37553 a 1.105453,1.105453 0 0 0 -0.49311,0.26304 c -0.83974,0.79325 -0.96987,2.82285 -0.96987,2.82285 0,0 1.48287,0.20092 2.59629,-0.71036 z"
                        fill="#3f3d56"
                        id="path2047"/>
            </g>
        </svg>